# xmcd
#
# Track frame offsets:
#	150
#	15904
#	27751
#	49086
#	60390
#	75425
#	91116
#	110088
#	122061
#	136163
#	146967
#	163465
#	177785
#	192773
#	208227
#	224693
#	238394
#	255533
#	271989
#
# Disc length: 3899 seconds
#
# Revision: 1
# Processed by: cddbd v1.5.2PL0 Copyright (c) Steve Scherf et al.
# Submitted via: audiograbber 1.83.01
#
DISCID=130f3913
DTITLE=Kris Kristofferson - For The Good Times - The Best Of Kris Kristofferson
DTITLE=[CD1]
DYEAR=2013
DGENRE=Country
TTITLE0=Why Me
TTITLE1=Gettin' By, High And Strange
TTITLE2=To Beat The Devil
TTITLE3=Jesus Was A Capricorn (Owed To John Prine)
TTITLE4=We Must Have Been Out Of Our Minds (With Rita Coolidge)
TTITLE5=Give It Time To Be Tender (With Rita Coolidge)
TTITLE6=Me And Bobby McGee
TTITLE7=Come Sundown
TTITLE8=Jody And The Kid
TTITLE9=Help Me Make It Through The Night
TTITLE10=Just The Other Side Of Nowhere
TTITLE11=Smokey Put The Sweat On Me
TTITLE12=Darby's Castle
TTITLE13=For The Good Times
TTITLE14=You Show Me Yours (And I'll Show You Mine)
TTITLE15=Michoacan (From The Motion Picture Cisco Pike)
TTITLE16=Loving Her Was Easier (Than Anything I'll Ever Do Again)
TTITLE17=Border Lord
TTITLE18=Sunday Mornin' Comin' Down
EXTD=
EXTT0=
EXTT1=
EXTT2=
EXTT3=
EXTT4=
EXTT5=
EXTT6=
EXTT7=
EXTT8=
EXTT9=
EXTT10=
EXTT11=
EXTT12=
EXTT13=
EXTT14=
EXTT15=
EXTT16=
EXTT17=
EXTT18=
PLAYORDER=
